<svg xmlns="http://www.w3.org/2000/svg" viewBox="0 0 960 540" role="img" aria-label="Vehicle positioned for ADAS camera calibration"><defs><linearGradient id="g" x1="0" x2="1" y1="0" y2="1"><stop stop-color="#071018"/><stop offset="1" stop-color="#0f5262"/></linearGradient></defs><rect width="960" height="540" fill="url(#g)"/><circle cx="830" cy="80" r="190" fill="#0aa8c0" opacity=".14"/><circle cx="140" cy="450" r="210" fill="#87d6ea" opacity=".08"/><path d="M290 305h380l40 120H250z" fill="#123845" stroke="#87d6ea" stroke-width="8"/><path d="M330 205h300l32 105H298z" fill="#dff8ff" opacity=".72"/><circle cx="330" cy="438" r="38" fill="#101820" stroke="#87d6ea" stroke-width="9"/><circle cx="630" cy="438" r="38" fill="#101820" stroke="#87d6ea" stroke-width="9"/><rect x="382" y="70" width="196" height="88" fill="#f4f1eb"/><path d="M382 70h196v88H382zM382 114h196M431 70v88M480 70v88M529 70v88" stroke="#101820" stroke-width="7"/><path d="M480 158v120M390 245h180M420 210l60 68 60-68" stroke="#0aa8c0" stroke-width="10" stroke-linecap="round" fill="none"/></svg>