<svg xmlns="http://www.w3.org/2000/svg" viewBox="0 0 960 540" role="img" aria-label="Replacement of broken passenger-side vehicle glass"><defs><linearGradient id="g" x1="0" x2="1" y1="0" y2="1"><stop stop-color="#071018"/><stop offset="1" stop-color="#0f5262"/></linearGradient></defs><rect width="960" height="540" fill="url(#g)"/><circle cx="830" cy="80" r="190" fill="#0aa8c0" opacity=".14"/><circle cx="140" cy="450" r="210" fill="#87d6ea" opacity=".08"/><path d="M145 285c45-90 132-135 260-135h205c83 0 150 49 202 147l52 8v115H98V315z" fill="#123845" stroke="#87d6ea" stroke-width="8"/><path d="M305 178h150v116H228c22-54 47-91 77-116zM475 178h122c51 0 95 35 133 105H475z" fill="#dff8ff" opacity=".73"/><path d="M600 200l-42 42 48 10-55 32" stroke="#101820" stroke-width="9" stroke-linecap="round"/><circle cx="245" cy="430" r="48" fill="#101820" stroke="#87d6ea" stroke-width="10"/><circle cx="710" cy="430" r="48" fill="#101820" stroke="#87d6ea" stroke-width="10"/></svg>